<?xml version="1.0" encoding="UTF-8"?>
<svg id="Layer_2" data-name="Layer 2" xmlns="http://www.w3.org/2000/svg" viewBox="0 0 16 16">
  <defs>
    <style>
      .cls-1 {
        fill: #fff;
        stroke-width: 0px;
      }
    </style>
  </defs>
  <g id="Layer_1-2" data-name="Layer 1">
    <path class="cls-1" d="m8.08,16h-.15C3.51,15.96-.04,12.34,0,7.92.04,3.51,3.66-.04,8.08,0c4.42.04,7.97,3.66,7.92,8.08-.04,4.36-3.56,7.88-7.92,7.92Zm-.41-14.2c-.23.27-.46.71-.68,1.32-.37,1.05-.63,2.5-.69,4.13h3.55c-.06-1.63-.32-3.07-.69-4.13-.21-.61-.45-1.05-.68-1.32-.19-.24-.33-.28-.39-.3h-.04c-.06,0-.19.05-.39.3Zm-2.87,5.45c.06-1.77.34-3.39.77-4.62.1-.28.21-.55.33-.81C3.49,2.61,1.76,4.73,1.47,7.25h3.33Zm-3.33,1.5c.29,2.52,2.03,4.64,4.44,5.43-.12-.26-.23-.53-.33-.81-.43-1.24-.71-2.85-.77-4.62H1.47Zm4.84,0c.06,1.63.32,3.07.69,4.13.21.61.45,1.05.68,1.32.2.24.34.29.39.3h.04c.06-.01.19-.06.39-.3.23-.27.46-.71.68-1.32.37-1.06.63-2.5.69-4.13h-3.55Zm5.05,0c-.06,1.77-.34,3.39-.77,4.62-.08.23-.17.46-.27.67,2.23-.88,3.79-2.92,4.07-5.3h-3.03Zm3.03-1.5c-.28-2.38-1.84-4.42-4.07-5.3.1.21.19.44.27.67.43,1.24.71,2.85.77,4.62h3.03Z"/>
  </g>
</svg>